<?xml version="1.0" encoding="utf-8"?>
<!-- Generator: Adobe Illustrator 24.1.0, SVG Export Plug-In . SVG Version: 6.00 Build 0)  -->
<svg version="1.1" id="Layer_1" xmlns="http://www.w3.org/2000/svg" xmlns:xlink="http://www.w3.org/1999/xlink" x="0px" y="0px"
	 viewBox="0 0 251.89 83.61" style="enable-background:new 0 0 251.89 83.61;" xml:space="preserve">
<style type="text/css">
	.st0{fill:#39C0C4;}
	.st1{fill:#666766;}
</style>
<path d="M68.53,31.13"/>
<g>
	<polygon class="st0" points="46.67,13.5 46.67,6.89 40.95,3.59 35.23,6.89 35.23,13.5 40.95,16.8 	"/>
	<polygon class="st0" points="60.35,21.4 60.35,14.79 54.63,11.49 48.91,14.79 48.91,21.4 54.63,24.7 	"/>
	<polygon class="st0" points="73.78,29.15 73.78,22.54 68.06,19.24 62.34,22.54 62.34,29.15 68.06,32.45 	"/>
	<polygon class="st1" points="73.78,44.8 73.78,38.2 68.06,34.89 62.34,38.2 62.34,44.8 68.06,48.11 	"/>
	<polygon class="st1" points="58.99,36.56 58.99,31.52 54.63,29.01 50.27,31.52 50.27,36.56 54.63,39.08 	"/>
	<polygon class="st0" points="58.99,52.21 58.99,47.18 54.63,44.66 50.27,47.18 50.27,52.21 54.63,54.73 	"/>
	<polygon class="st0" points="29.31,36.02 29.31,32.07 25.89,30.09 22.47,32.07 22.47,36.02 25.89,38 	"/>
	<polygon class="st1" points="29.31,51.67 29.31,47.72 25.89,45.74 22.47,47.72 22.47,51.67 25.89,53.65 	"/>
	<polygon class="st1" points="13.84,43.15 13.84,39.85 10.98,38.2 8.12,39.85 8.12,43.15 10.98,44.8 	"/>
	<polygon class="st0" points="73.78,60.46 73.78,53.85 68.06,50.55 62.34,53.85 62.34,60.46 68.06,63.76 	"/>
	<polygon class="st1" points="45.81,28.54 45.81,23.15 41.14,20.45 36.47,23.15 36.47,28.54 41.14,31.24 	"/>
	<polygon class="st1" points="45.81,59.85 45.81,54.46 41.14,51.76 36.47,54.46 36.47,59.85 41.14,62.55 	"/>
	<polygon class="st0" points="45.06,43.76 45.06,39.24 41.14,36.97 37.22,39.24 37.22,43.76 41.14,46.03 	"/>
	<polygon class="st0" points="60.35,68.21 60.35,61.6 54.63,58.3 48.91,61.6 48.91,68.21 54.63,71.51 	"/>
	<polygon class="st0" points="30.58,20.41 30.58,14.99 25.89,12.28 21.2,14.99 21.2,20.41 25.89,23.12 	"/>
	<polygon class="st0" points="13.42,24.99 13.42,21.92 10.77,20.39 8.12,21.92 8.12,24.99 10.77,26.52 	"/>
	<polygon class="st0" points="46.67,76.11 46.67,69.5 40.95,66.2 35.23,69.5 35.23,76.11 40.95,79.41 	"/>
	<polygon class="st0" points="30.58,68.01 30.58,62.59 25.89,59.88 21.2,62.59 21.2,68.01 25.89,70.72 	"/>
	<polygon class="st0" points="15.58,61.01 15.58,56.7 11.85,54.55 8.12,56.7 8.12,61.01 11.85,63.17 	"/>
</g>
<g>
	<path class="st0" d="M89.44,51.44c1.8,1.08,4.68,1.94,7.47,1.94c3.69,0,5.63-1.75,5.63-4.32c0-2.48-1.67-3.96-5.49-5.63
		c-5.22-2.25-8.46-5.49-8.46-9.99c0-5.67,4.46-10.04,11.93-10.04c3.29,0,5.81,0.76,7.43,1.58l-1.4,5.45
		c-1.22-0.63-3.33-1.49-6.17-1.49c-3.51,0-5.09,1.89-5.09,3.83c0,2.48,1.71,3.6,5.94,5.54c5.54,2.48,8.01,5.67,8.01,10.22
		c0,6.03-4.55,10.44-12.6,10.44c-3.42,0-6.89-0.95-8.51-1.94L89.44,51.44z"/>
	<path class="st0" d="M111.85,35.06c1.67-0.99,4.77-2.12,8.69-2.12c7.79,0,9.9,4.95,9.9,10.44v9.18c0,2.21,0.09,4.41,0.36,5.94
		h-5.99l-0.41-2.61h-0.13c-1.44,1.98-3.87,3.11-6.66,3.11c-4.64,0-7.52-3.47-7.52-7.52c0-6.44,5.72-9.45,13.68-9.45
		c0-2.48-0.86-4.37-4.5-4.37c-2.3,0-4.55,0.72-6.17,1.71L111.85,35.06z M123.96,46.31c-3.6,0-7.34,0.85-7.34,4.5
		c0,2.39,1.49,3.42,3.15,3.42c1.58,0,4.19-1.12,4.19-4.32V46.31z"/>
	<path class="st0" d="M148.08,33.44h6.89l-8.55,25.07h-6.44l-8.42-25.07h7.16l3.29,12.15c0.54,2.16,0.99,4.23,1.4,6.39h0.13
		c0.41-2.16,0.86-4.19,1.4-6.39L148.08,33.44z"/>
	<path class="st0" d="M161.18,47.97c0.18,4.28,3.24,5.99,6.84,5.99c2.48,0,4.41-0.45,6.12-1.04l0.95,4.59c-2.07,0.9-5,1.44-8.1,1.44
		c-7.74,0-12.15-4.86-12.15-12.65c0-7.2,4.14-13.41,11.48-13.41c6.08,0,10.04,4.32,10.04,12.42c0,0.99-0.04,1.94-0.18,2.66H161.18z
		 M170.18,43.34c0.05-2.61-0.99-5.81-4.28-5.81c-3.2,0-4.55,3.33-4.73,5.81H170.18z"/>
	<path class="st1" d="M178.86,35.06c1.67-0.99,4.77-2.12,8.69-2.12c7.79,0,9.9,4.95,9.9,10.44v9.18c0,2.21,0.09,4.41,0.36,5.94
		h-5.99l-0.41-2.61h-0.14c-1.44,1.98-3.87,3.11-6.66,3.11c-4.64,0-7.52-3.47-7.52-7.52c0-6.44,5.72-9.45,13.68-9.45
		c0-2.48-0.85-4.37-4.5-4.37c-2.3,0-4.55,0.72-6.17,1.71L178.86,35.06z M190.97,46.31c-3.6,0-7.34,0.85-7.34,4.5
		c0,2.39,1.49,3.42,3.15,3.42c1.58,0,4.19-1.12,4.19-4.32V46.31z"/>
	<path class="st1" d="M222.7,22.32v29.03c0,2.52,0.09,5.31,0.18,7.16h-5.85l-0.31-3.56h-0.14c-1.3,2.48-4.01,4.05-7.07,4.05
		c-5.67,0-9.72-5.22-9.72-12.83c0-8.55,4.73-13.23,10.13-13.23c2.93,0,5.04,1.21,6.03,2.93h0.09V22.32H222.7z M216.04,43.65
		c0-3.65-2.21-5.45-4.41-5.45c-3.42,0-5.13,3.51-5.13,7.88c0,4.55,1.89,7.56,5.04,7.56c1.98,0,4.5-1.44,4.5-5.4V43.65z"/>
	<path class="st1" d="M248.04,22.32v29.03c0,2.52,0.09,5.31,0.18,7.16h-5.85l-0.31-3.56h-0.14c-1.3,2.48-4.01,4.05-7.07,4.05
		c-5.67,0-9.72-5.22-9.72-12.83c0-8.55,4.73-13.23,10.13-13.23c2.93,0,5.04,1.21,6.03,2.93h0.09V22.32H248.04z M241.38,43.65
		c0-3.65-2.21-5.45-4.41-5.45c-3.42,0-5.13,3.51-5.13,7.88c0,4.55,1.89,7.56,5.04,7.56c1.98,0,4.5-1.44,4.5-5.4V43.65z"/>
</g>
<path d="M68.53,30.54"/>
</svg>
